<?xml version="1.0" standalone="no"?>
<!DOCTYPE svg PUBLIC "-//W3C//DTD SVG 20010904//EN"
 "http://www.w3.org/TR/2001/REC-SVG-20010904/DTD/svg10.dtd">
<svg version="1.0" xmlns="http://www.w3.org/2000/svg"
 width="500.000000pt" height="500.000000pt" viewBox="0 0 500.000000 500.000000"
 preserveAspectRatio="xMidYMid meet">

<g transform="translate(0.000000,500.000000) scale(0.100000,-0.100000)"
fill="#000000" stroke="none">
<path d="M1138 3324 c-6 -9 -160 -403 -172 -436 -5 -17 -26 -18 -246 -18
l-242 0 29 -24 c15 -13 75 -60 133 -105 145 -112 171 -133 197 -156 l23 -20
-55 -170 c-30 -93 -55 -173 -55 -177 0 -13 40 3 181 71 168 80 282 164 418
304 73 76 161 188 161 205 0 6 -17 24 -38 41 -30 23 -50 31 -93 33 l-54 3 -32
80 c-17 44 -48 123 -68 175 -21 52 -43 109 -50 125 -7 17 -17 41 -22 54 -5 14
-12 21 -15 15z"/>
<path d="M4111 3230 c-50 -12 -84 -42 -100 -87 -29 -83 21 -141 153 -175 79
-21 97 -73 35 -99 -33 -13 -91 -1 -136 28 -22 15 -24 14 -46 -13 -12 -16 -22
-33 -22 -38 0 -5 22 -21 49 -35 37 -19 64 -25 115 -25 111 -1 165 44 165 137
0 43 -4 53 -32 78 -17 16 -61 37 -100 48 -74 22 -106 48 -96 75 15 39 70 46
129 16 21 -11 39 -19 39 -17 1 1 12 14 25 29 20 23 21 29 9 40 -39 36 -124 54
-187 38z"/>
<path d="M2060 3010 l0 -220 45 0 44 0 3 135 3 134 100 -134 c97 -132 100
-135 137 -135 l38 0 0 220 0 220 -40 0 -39 0 -3 -142 -3 -141 -81 109 c-44 60
-90 124 -103 142 -19 27 -29 32 -62 32 l-39 0 0 -220z"/>
<path d="M2570 3010 l0 -220 155 0 155 0 0 40 0 40 -110 0 -110 0 0 50 0 50
100 0 100 0 0 40 0 39 -97 3 -98 3 -3 48 -3 47 110 0 111 0 0 40 0 40 -155 0
-155 0 0 -220z"/>
<path d="M3016 3178 c21 -29 56 -79 78 -110 l39 -57 -46 -68 c-25 -37 -60 -87
-76 -110 l-31 -43 54 0 c50 0 56 2 74 33 11 17 34 51 51 75 l30 43 51 -75 51
-76 49 0 c28 0 50 3 50 6 0 3 -30 49 -66 101 -36 52 -68 101 -71 109 -3 7 27
61 66 119 l72 105 -53 0 -53 -1 -45 -69 c-25 -38 -48 -70 -51 -70 -3 0 -27 32
-53 70 l-46 70 -56 0 -56 0 38 -52z"/>
<path d="M3510 3084 c0 -83 5 -164 12 -186 27 -92 146 -141 251 -104 96 35
116 84 117 284 l0 152 -45 0 -45 0 0 -154 c0 -139 -2 -156 -20 -179 -39 -49
-130 -45 -165 9 -12 18 -15 55 -15 174 l0 150 -45 0 -45 0 0 -146z"/>
<path d="M1656 2947 l-179 -61 42 -36 c22 -20 41 -39 41 -44 0 -5 -25 -48 -57
-95 -80 -123 -249 -287 -393 -383 -104 -69 -339 -195 -398 -213 -13 -4 -22 -8
-20 -10 4 -4 128 31 213 60 59 20 200 86 266 126 l47 27 119 -75 c65 -42 142
-91 171 -110 51 -33 53 -33 47 -11 -13 43 -67 212 -91 286 l-24 73 37 32 c21
17 74 67 119 109 l80 78 34 -35 c19 -19 37 -32 41 -28 4 5 28 84 54 176 25 93
49 175 52 183 8 21 -7 18 -201 -49z"/>
<path d="M2503 2680 c-15 -41 12 -50 46 -16 28 28 27 31 -9 39 -22 5 -28 2
-37 -23z"/>
<path d="M3143 2609 c-46 -14 -76 -56 -69 -98 7 -46 21 -58 97 -84 56 -19 64
-25 64 -47 0 -23 -4 -25 -47 -28 -30 -2 -56 3 -71 13 -22 14 -25 14 -43 -6
-18 -20 -18 -21 6 -39 30 -23 97 -35 143 -26 65 12 100 70 77 126 -9 23 -25
34 -69 50 -75 27 -85 34 -89 58 -4 28 47 39 87 19 27 -13 31 -13 45 2 23 25
20 37 -11 49 -45 17 -86 21 -120 11z"/>
<path d="M3453 2609 c-63 -19 -93 -92 -55 -138 9 -12 46 -32 82 -44 57 -19 65
-25 65 -47 0 -23 -4 -25 -47 -28 -30 -2 -56 3 -71 13 -22 14 -25 14 -42 -5
-23 -25 -8 -45 44 -60 120 -33 211 25 181 116 -11 32 -38 48 -137 78 -56 17
-24 72 36 61 20 -4 41 -11 47 -16 7 -6 18 -1 30 12 19 21 18 21 -5 40 -13 10
-31 19 -40 19 -9 0 -25 2 -36 4 -11 3 -34 0 -52 -5z"/>
<path d="M2060 2450 l0 -160 30 0 c29 0 30 1 30 50 l0 50 34 0 c30 0 38 -6 66
-50 28 -44 36 -50 66 -50 19 0 34 4 34 9 0 4 -16 29 -35 54 l-35 46 23 16 c68
44 57 149 -18 181 -20 8 -68 14 -115 14 l-80 0 0 -160z m178 88 c7 -7 12 -24
12 -38 0 -38 -18 -50 -77 -50 l-53 0 0 50 0 50 53 0 c29 0 58 -5 65 -12z"/>
<path d="M2400 2450 l0 -160 110 0 110 0 0 30 0 30 -75 0 -75 0 0 35 0 35 70
0 70 0 0 30 0 30 -70 0 -70 0 0 35 0 35 75 0 75 0 0 30 0 30 -110 0 -110 0 0
-160z"/>
<path d="M2710 2495 c0 -133 10 -163 64 -189 67 -32 155 -13 191 40 16 24 20
51 23 147 l4 117 -36 0 -36 0 0 -113 c0 -135 -9 -150 -81 -145 -59 4 -69 26
-69 156 l0 102 -30 0 -30 0 0 -115z"/>
<path d="M3700 2450 l0 -160 30 0 30 0 0 160 0 160 -30 0 -30 0 0 -160z"/>
<path d="M3834 2595 c-12 -31 4 -45 51 -45 l45 0 0 -130 0 -130 30 0 30 0 0
129 0 130 48 3 c43 3 47 5 47 28 l0 25 -123 3 c-102 2 -123 0 -128 -13z"/>
<path d="M4150 2450 l0 -160 110 0 110 0 0 30 0 30 -80 0 -80 0 0 35 0 35 75
0 75 0 0 30 0 30 -75 0 -75 0 0 35 0 35 80 0 80 0 0 30 0 30 -110 0 -110 0 0
-160z"/>
<path d="M2040 2031 c0 -92 3 -120 14 -124 8 -3 532 -6 1165 -7 l1151 -1 0
126 0 125 -1165 0 -1165 0 0 -119z m130 9 c18 -46 21 -45 39 13 12 36 31 51
31 23 0 -22 -42 -116 -52 -116 -9 0 -39 61 -53 109 -13 42 16 18 35 -29z m110
40 c0 -5 -4 -10 -10 -10 -5 0 -10 5 -10 10 0 6 5 10 10 10 6 0 10 -4 10 -10z
m465 -53 c13 -32 19 -59 14 -63 -5 -3 -12 2 -15 10 -4 9 -18 16 -34 16 -16 0
-30 -7 -34 -16 -3 -8 -10 -13 -15 -10 -8 5 18 90 36 119 10 17 26 -1 48 -56z
m295 53 c0 -5 -7 -10 -15 -10 -8 0 -15 5 -15 10 0 6 7 10 15 10 8 0 15 -4 15
-10z m208 -52 c-3 -59 -4 -62 -31 -65 -37 -5 -57 12 -57 47 0 33 22 54 50 47
15 -4 20 0 20 14 0 10 5 19 10 19 7 0 10 -23 8 -62z m370 46 c47 -33 12 -114
-50 -114 -28 0 -28 0 -28 65 0 64 0 65 28 65 15 0 38 -7 50 -16z m97 6 c-3 -5
-11 -10 -16 -10 -6 0 -7 5 -4 10 3 6 11 10 16 10 6 0 7 -4 4 -10z m-915 -10
c0 -5 7 -10 15 -10 8 0 15 -4 15 -10 0 -5 -7 -10 -15 -10 -21 0 -19 -47 2 -59
10 -5 14 -13 10 -17 -24 -24 -65 63 -50 103 6 15 23 17 23 3z m70 0 c0 -5 7
-10 15 -10 8 0 15 -4 15 -10 0 -5 -7 -10 -15 -10 -10 0 -15 -10 -15 -30 0 -20
5 -30 15 -30 8 0 15 -5 15 -11 0 -6 -10 -9 -22 -7 -19 2 -24 11 -29 48 -3 25
-4 51 -2 58 6 14 23 16 23 2z m-590 -60 c0 -27 -4 -50 -10 -50 -5 0 -10 23
-10 50 0 28 5 50 10 50 6 0 10 -22 10 -50z m88 32 c3 -9 -3 -11 -22 -6 -33 8
-34 -3 -1 -16 33 -13 34 -47 1 -56 -26 -6 -46 1 -46 17 0 5 11 7 25 3 15 -4
25 -2 25 5 0 6 -6 11 -14 11 -20 0 -37 25 -30 44 8 20 55 18 62 -2z m90 6 c7
-7 12 -20 12 -30 0 -13 -8 -18 -31 -18 -18 0 -28 -4 -24 -10 4 -6 15 -10 24
-8 10 2 20 -1 22 -7 6 -15 -40 -18 -57 -5 -30 26 -11 90 26 90 9 0 21 -5 28
-12z m82 3 c0 -5 -7 -11 -15 -15 -9 -3 -15 -19 -15 -41 0 -19 -4 -35 -10 -35
-5 0 -10 23 -10 50 0 47 2 50 25 50 14 0 25 -4 25 -9z m448 -11 c16 -26 8 -40
-24 -40 -13 0 -24 -5 -24 -11 0 -7 10 -9 26 -5 19 5 25 3 22 -6 -13 -38 -78
-8 -78 36 0 46 54 64 78 26z m50 -36 c-2 -22 -7 -39 -13 -39 -12 0 -19 60 -10
83 10 28 27 -3 23 -44z m100 4 c4 -56 -15 -66 -20 -10 -2 25 -8 37 -18 37 -10
0 -16 -12 -18 -37 -5 -55 -22 -46 -22 11 l0 49 38 -1 c37 -2 37 -2 40 -49z
m182 42 c0 -4 -7 -10 -15 -14 -9 -3 -15 -19 -15 -41 0 -19 -4 -35 -10 -35 -5
0 -10 22 -10 49 0 45 2 49 25 49 14 0 25 -4 25 -8z m89 -12 c11 -30 6 -38 -25
-38 -15 0 -23 -4 -19 -10 4 -6 16 -8 27 -4 15 4 19 2 16 -7 -12 -37 -78 -7
-78 36 0 46 63 64 79 23z m319 10 c7 -7 12 -20 12 -30 0 -13 -8 -18 -31 -18
-19 0 -28 -4 -23 -11 3 -6 15 -8 26 -6 12 4 18 1 15 -6 -5 -17 -35 -21 -52 -7
-31 26 -12 90 25 90 9 0 21 -5 28 -12z m96 6 c19 -7 22 -64 4 -82 -7 -7 -20
-12 -30 -12 -10 0 -18 -7 -18 -15 0 -8 -4 -15 -10 -15 -6 0 -10 28 -10 65 0
62 1 65 24 65 13 0 31 -3 40 -6z m105 -8 c7 -8 11 -29 9 -47 -2 -26 -8 -33
-29 -36 -30 -4 -54 19 -45 42 3 8 15 15 26 15 11 0 20 5 20 10 0 6 -9 10 -20
10 -11 0 -20 5 -20 10 0 15 46 12 59 -4z m86 4 c3 -5 -3 -10 -14 -10 -27 0
-27 -16 -1 -23 21 -5 28 -41 9 -52 -14 -9 -61 3 -54 14 3 5 14 7 25 4 11 -3
20 0 20 6 0 6 -6 11 -14 11 -7 0 -19 7 -26 15 -10 12 -10 18 0 30 14 17 46 20
55 5z m92 -6 c2 -7 -6 -10 -22 -7 -32 7 -32 -5 0 -17 14 -5 25 -16 25 -24 0
-32 -58 -48 -68 -18 -3 9 3 11 22 6 16 -4 26 -2 26 5 0 6 -6 11 -14 11 -20 0
-37 25 -30 44 7 19 55 19 61 0z m93 1 c18 -21 5 -45 -25 -45 -16 0 -24 -4 -19
-11 3 -6 15 -8 26 -6 12 4 18 1 15 -6 -5 -17 -35 -21 -52 -7 -18 15 -20 61 -3
78 16 16 43 15 58 -3z m80 5 c0 -5 -7 -10 -15 -10 -10 0 -15 -10 -15 -34 0
-19 -4 -38 -10 -41 -6 -4 -10 13 -10 44 0 48 2 51 25 51 14 0 25 -4 25 -10z
m-1710 -75 c0 -8 -4 -15 -9 -15 -13 0 -22 16 -14 24 11 11 23 6 23 -9z m882 0
c0 -5 -5 -11 -11 -13 -6 -2 -11 4 -11 13 0 9 5 15 11 13 6 -2 11 -8 11 -13z
m858 7 c0 -13 -12 -22 -22 -16 -10 6 -1 24 13 24 5 0 9 -4 9 -8z"/>
<path d="M2700 2030 c-9 -16 -8 -20 5 -20 8 0 15 9 15 20 0 11 -2 20 -5 20 -2
0 -9 -9 -15 -20z"/>
<path d="M3184 2025 c-8 -21 3 -45 20 -45 16 0 31 34 21 50 -9 15 -35 12 -41
-5z"/>
<path d="M3560 2025 c0 -46 7 -53 41 -35 37 20 15 80 -30 80 -6 0 -11 -20 -11
-45z"/>
<path d="M2415 2030 c-3 -5 3 -10 15 -10 12 0 18 5 15 10 -3 6 -10 10 -15 10
-5 0 -12 -4 -15 -10z"/>
<path d="M2940 2030 c0 -5 7 -10 15 -10 8 0 15 5 15 10 0 6 -7 10 -15 10 -8 0
-15 -4 -15 -10z"/>
<path d="M3360 2030 c0 -5 7 -10 15 -10 8 0 15 5 15 10 0 6 -7 10 -15 10 -8 0
-15 -4 -15 -10z"/>
<path d="M3680 2030 c0 -5 9 -10 21 -10 11 0 17 5 14 10 -3 6 -13 10 -21 10
-8 0 -14 -4 -14 -10z"/>
<path d="M3784 2025 c-8 -21 3 -48 19 -43 19 7 22 58 2 58 -8 0 -18 -7 -21
-15z"/>
<path d="M3880 1990 c0 -5 7 -10 15 -10 8 0 15 5 15 10 0 6 -7 10 -15 10 -8 0
-15 -4 -15 -10z"/>
<path d="M4150 2030 c0 -5 7 -10 15 -10 8 0 15 5 15 10 0 6 -7 10 -15 10 -8 0
-15 -4 -15 -10z"/>
</g>
</svg>
